<?xml version="1.0" encoding="UTF-8" standalone="no"?>
<svg
   version="1"
   viewBox="0 0 1700.021312 1567.588891"
   id="svg4"
   sodipodi:docname="logo.svg"
   inkscape:version="1.3.1 (91b66b0, 2023-11-16)"
   xmlns:inkscape="http://www.inkscape.org/namespaces/inkscape"
   xmlns:sodipodi="http://sodipodi.sourceforge.net/DTD/sodipodi-0.dtd"
   xmlns="http://www.w3.org/2000/svg"
   xmlns:svg="http://www.w3.org/2000/svg">
  <defs
     id="defs4" />
  <sodipodi:namedview
     id="namedview4"
     pagecolor="#ffffff"
     bordercolor="#000000"
     borderopacity="0.25"
     inkscape:showpageshadow="2"
     inkscape:pageopacity="0.0"
     inkscape:pagecheckerboard="0"
     inkscape:deskcolor="#d1d1d1"
     inkscape:zoom="0.35866496"
     inkscape:cx="846.19362"
     inkscape:cy="1297.8686"
     inkscape:window-width="1088"
     inkscape:window-height="1920"
     inkscape:window-x="1512"
     inkscape:window-y="0"
     inkscape:window-maximized="0"
     inkscape:current-layer="svg4" />
  <path
     d="m 838.35647,87.791756 c -5,1.2 -8.9,3.2 -13.2,7.1 -4.4,3.8 -5.8,6.400004 -7.8,14.400004 -1.5,5.6 -1.4,6.6 0.2,13.1 2,8.2 6.1,13.9 12.4,17.6 9.6,5.5 20.5,5.8 29.5,0.6 9.1,-5.2 14.2,-14.3 14.2,-25.5 0,-17.400004 -18,-31.300004 -35.3,-27.300004 z m -42.2,73.100004 c -9.3,2.2 -21.3,6.5 -26.3,9.5 -3,1.8 -5.6,3.3 -5.9,3.3 -0.9,0 -12,8.9 -15.8,12.7 -10.1,10 -19,26.2 -21.9,39.5 -0.8,3.4 -2.7,3.5 -6.9,0.5 -1.8,-1.2 -4.5,-2.9 -6.2,-3.8 -16,-8.4 -35.8,-1.6 -43,14.7 -4.3,9.8 -3,24.9 3,32.9 4.5,6 8,8.6 18.4,13.7 11.9,5.8 18,11.2 22.4,19.6 2.6,5.1 2.7,6 2.7,20 0,15 0.7,18.4 4.2,20.6 1.2,0.7 2.4,0.6 4.2,-0.3 l 2.5,-1.4 0.3,-39.2 0.3,-39.1 2.5,-3.7 c 3,-4.4 5.7,-5.7 11.9,-5.7 4.3,0 5.3,0.4 7.9,3.4 2.7,3.1 3.1,4.4 3.7,12.2 0.4,4.8 0.5,11.5 0.2,14.9 -0.4,4.2 -0.2,6.8 0.6,7.9 1.1,1.5 1.6,1.2 4.5,-2.3 1.8,-2.2 6.7,-6.5 10.8,-9.6 4,-3.1 7.4,-6 7.4,-6.5 0,-0.5 -2.1,-1 -4.7,-1.2 l -4.8,-0.3 -0.3,-20.8 c -0.3,-23.2 0.6,-28.3 5.8,-35.4 9.5,-12.9 31.5,-17.5 44.7,-9.3 4.4,2.6 9.9,10.4 11.9,16.7 1.3,4.1 1.5,8 1.2,18.5 -0.4,13.2 -0.4,13.4 -4.2,20.6 -5.1,9.7 -10.7,14.4 -25.2,21.6 -15.7,7.8 -21.4,11.6 -30.2,20.1 -6.8,6.5 -14.1,16.4 -15.5,21 -0.3,1.1 -1.5,4.7 -2.7,8 -1.9,5.6 -2.1,8.1 -2.1,34.7 0.1,28 0,28.8 -1.9,28.8 -2.2,0 -10.4,-1.9 -13.5,-3 -1.1,-0.5 -4,-1.6 -6.4,-2.5 -9.9,-3.6 -19.9,-13.3 -25,-24 -3.9,-8.3 -4.2,-9.7 -5,-30 -0.7,-17.1 -0.9,-18.2 -3.4,-22.2 -3.6,-5.7 -8.5,-10.3 -13.8,-13.2 -2.4,-1.3 -6.2,-3.3 -8.3,-4.4 -7.5,-4 -17,-14 -21.4,-22.8 -2.3,-4.4 -4.2,-9.3 -4.2,-10.8 0,-5 -3.9,-6.6 -7.8,-3.2 -2.2,1.8 -2.2,2 -2.2,48.8 v 47.1 l 11.8,0.4 c 9.3,0.4 12.8,1 17.2,2.9 7.3,3.1 13.9,7.2 17.1,10.6 3.3,3.6 9.2,12.1 10.6,15.3 4,9.4 5.3,14.9 5.4,23.1 0.1,3.2 0.3,5.9 0.6,5.9 0.6,0 8.6,-4.3 9.3,-5 0.3,-0.3 3,-1.4 6,-2.5 4.6,-1.7 8.1,-2 21.5,-2 14.3,0 16.7,0.3 22.5,2.4 8.5,3 18.2,8.3 23.8,12.9 6.3,5.2 15.3,16.1 18.6,22.7 1.6,3 3.2,5.5 3.7,5.5 1.2,0 1.2,-25.8 0,-29.6 -0.5,-1.6 -1.4,-5.4 -2.1,-8.4 -2,-9 -7.6,-18.4 -16.6,-28 -13.3,-14.2 -16.5,-19.3 -18.9,-30.2 -4.1,-18.8 12.8,-43.4 33.1,-48.1 5.2,-1.2 6.6,-1.2 11.8,0.3 10.9,3 10.1,-3.1 10.4,73.7 0.2,59.1 0.1,67.2 -1.4,72.2 -2.2,7.7 -6.2,16.1 -9.1,19.3 -3,3.1 -2.3,4.8 1.8,4.8 4.7,0 10.5,3.6 14,8.7 l 3.3,4.7 v 17.6 c 0,9.6 -0.1,60.3 -0.2,112.6 l -0.2,95.1 -2.5,1.1 c -10.4,4.8 -24.3,-5.6 -29.4,-21.9 -0.6,-1.9 -1.1,-9.8 -1.1,-17.5 0,-10.8 -0.3,-14.5 -1.5,-16 -0.8,-1 -1.5,-2.7 -1.5,-3.7 0,-1 -2.3,-4.3 -5.1,-7.3 -5.2,-5.4 -7.7,-6.9 -6.4,-3.7 3.2,7.8 2.4,20.8 -1.9,29.5 -3.6,7.3 -4.4,8.4 -10.3,15.5 l -5.2,6.3 9.7,9.7 c 19.9,20.1 40.1,42.5 42.2,46.7 2.8,5.8 2,10.3 -2.9,15.7 -2.4,2.7 -4.9,4.3 -7.6,4.9 -5.3,1.3 -17.2,1.2 -21.4,0 -8.1,-2.3 -10.7,-8.9 -7.1,-18 2.6,-6.6 2.1,-10.5 -2.2,-17.3 -3.8,-6 -13.6,-14.9 -20.8,-18.9 -3,-1.7 -6.5,-4 -7.7,-5 -2.1,-2 -6.2,-1.9 -10.3,0.3 -6,3.2 -22.1,3.8 -35.1,1.3 -9.1,-1.7 -21.5,-7.5 -29.2,-13.7 -2.3,-1.9 -4.7,-3.2 -5.4,-3 -0.7,0.3 -0.9,-0.3 -0.6,-1.7 0.4,-1.3 -0.2,-3.2 -1.5,-4.9 -2.8,-3.9 -7.6,-13.7 -9.8,-20.1 -1.4,-4.2 -1.8,-8.6 -1.9,-18.5 v -13 l 4.8,-9.4 c 2.6,-5.2 5.5,-10 6.5,-10.7 1.4,-1 1.5,-1.5 0.4,-2.5 -0.9,-1 -4.8,-1.2 -14.5,-1.1 -17.2,0.4 -27.7,-1.9 -39.4,-8.3 -14.6,-8.1 -27.4,-23.5 -34.3,-41 -1.6,-4 -5.9,-22.9 -5.4,-23.4 1.2,-1.2 7.6,4.2 24.9,21.1 19.2,18.7 30.1,27.1 37.4,29 6.4,1.7 11.6,2.6 12,2.3 0.6,-0.7 -62.5,-63.5 -63.8,-63.5 -0.6,0 -2.1,-0.9 -3.3,-2 -2.6,-2.4 -18.5,-10.3 -25,-12.4 -11,-3.6 -16.2,-4 -62.3,-4.3 l -45.9,-0.3 -2.8,-2.7 c -3.5,-3.3 -3.6,-6.8 -0.4,-10.8 l 2.4,-3 44.9,0.3 c 41.9,0.2 49.5,0.7 57.8,3.3 2.1,0.6 3.3,0.5 4.1,-0.4 1,-0.9 -2.8,-5.3 -17.2,-20.2 -10.1,-10.4 -19.1,-20.5 -20,-22.4 -0.9,-1.9 -2,-7.7 -2.4,-12.9 -0.8,-11.2 -2.3,-13.2 -9.5,-13.2 -3.5,0 -4.8,0.5 -6.4,2.7 -2.7,3.3 -3.7,7.2 -2.4,9.2 0.5,0.9 2.9,2.6 5.1,3.9 4,2.3 4.2,2.5 4.2,7.2 0,4.1 -0.5,5.4 -2.9,7.9 -5.1,5.2 -8,6.1 -19.8,6.2 -11.5,0 -18.3,-1.7 -28.1,-7.2 -9.1,-5.2 -19.3,-17.2 -25.4,-29.9 -7,-14.5 -8.8,-23.8 -8.8,-45.6 0,-16.8 -1.2,-23.5 -5.9,-33.4 -2.6,-5.6 -9.7,-14.4 -15.2,-18.7 -4.3,-3.4 -15.7,-9.2 -22,-11.2 -4.3,-1.3 -15.8,-1.5 -19.2,-0.2 -4.3,1.6 -9.4,7.4 -10.7,11.9 -2.5,9.4 4.9,21.8 14.4,24.3 15.8,4.1 21.4,8.6 27,21.9 2.6,6.3 2.7,6.9 2.4,24 l -0.3,17.5 -8.1,0.7 c -22.3,1.8 -32.7,10 -37.9,29.8 -1.3,5.1 -0.9,39 0.5,39 0.4,0 1.4,-0.8 2.3,-1.8 0.9,-0.9 3.3,-2.5 5.4,-3.6 2.1,-1 4.9,-2.4 6.3,-3.1 6.9,-3.4 19.8,-2.4 30.5,2.5 6.6,2.9 16.7,12.3 19.6,18.2 5.7,11.3 5.4,9.4 5.7,40.2 0.2,18.1 0,29.2 -0.6,29.8 -0.7,0.7 -1.8,0.3 -3.4,-1.1 -1.2,-1.2 -4.3,-3.5 -6.8,-5.1 -2.5,-1.6 -5,-3.4 -5.6,-3.9 -1.7,-1.4 -12.5,-2.9 -22,-3 -4.4,-0.1 -5.4,-0.5 -6.8,-2.6 -2.2,-3.3 -1.5,-5.5 4,-11.6 5.1,-5.8 5.9,-8.2 4.5,-13.6 -1.9,-7 -8.2,-11.3 -16.6,-11.3 -5.5,0 -9.2,1.4 -12.8,4.8 -5.1,4.8 -5.7,7.7 -5.7,28.2 0,10.3 -0.3,20.2 -0.6,21.9 -0.5,2.3 -2.5,4.6 -7.8,8.8 -25.8,20.8 -39,46 -42.6,80.9 -1.4,13.1 -0.3,29.8 2.7,41.9 3.6,14.8 13.1,29.3 29.8,45.5 14.6,14.2 17.5,19.9 17.5,34.9 0,7.4 -0.4,9.5 -2.9,14.6 -3.4,7.3 -9.1,14.5 -19.5,24.5 -4.3,4.1 -9.3,9.5 -11.1,12 -8.7,12 -14.9,28.5 -16.1,43 -0.3,4.1 -0.8,7.8 -1,8.1 -0.6,1 1.4,20.4 2.7,26.9 3.2,15.8 8.9,28.9 19.2,43.9 5.6,8.1 24.9,28.1 27.2,28.1 2.3,0 2.8,6.2 2.1,26.90004 -0.9,22.9 0,27.5 6.2,33.5 4.1,4.1 11.1,5.5 17.8,3.7 5.6,-1.5 8.1,-3.6 10.9,-9.1 4.3,-8.6 3.2,-13.1 -4.3,-17.6 -1.7,-1 -3.7,-3.1 -4.3,-4.7 -1.1,-2.6 -1,-3.5 0.7,-6.6 l 1.9,-3.6 10,-0.6 c 10.4,-0.6 12.3,-1.1 16.5,-3.9 1.4,-1 5.1,-3.4 8.3,-5.4 3.1,-2 5.7,-4.10004 5.7,-4.70004 0,-0.5 0.6,-0.9 1.4,-0.9 1,0 1.4,5.00004 2,24.80004 0.8,28.1 0.1,33.7 -5.6,45.1 -3.9,7.7 -12.4,16.6 -19.3,20.3 -5.2,2.7 -14.1,4.8 -20.6,4.8 -4.6,0 -16.7,-4 -20.6,-6.8 -5.6,-4 -5.5,-4.3 -5.3,16.1 0.1,13.5 0.5,20.2 1.6,24 4.7,16 18.5,25.8 37.9,27 l 7,0.4 v 36.8 l -3.3,6.7 c -3.4,6.9 -9,12.7 -14.7,15.3 -1.6,0.7 -6.1,2 -9.9,2.9 -11.1,2.4 -15.6,8 -15.6,19.3 0,12.4 5.7,17.3 19.9,17.3 12.6,0 24.4,-5.5 35,-16.3 13.5,-13.8 16.9,-23.4 18,-51.7 0.6,-14.9 1.3,-21.5 3,-27.9 4,-15.1 12.1,-28.5 22.9,-38.1 7.4,-6.5 12.5,-9.4 21.7,-12.5 4,-1.3 17.7,-3.1 20.5,-2.6 8,1.3 14.3,5.1 16.1,9.8 1.2,3.1 0.1,8.1 -2,8.8 -0.9,0.2 -2.8,1.6 -4.3,3 -3.8,3.5 -3.7,7.5 0.3,11.4 3.4,3.5 6.5,3.9 11,1.5 4.2,-2.1 5.9,-6.8 5.9,-16.5 v -8.2 l 19.5,-19.6 c 10.7,-10.9 19.5,-20.1 19.5,-20.5 0,-0.5 -1.2,-0.5 -2.7,-0.1 -3.4,0.9 -3.6,0.9 -10.3,2.2 -6.9,1.4 -91,2.6 -94.2,1.4 -5.1,-1.9 -6,-8.2 -1.9,-13.2 l 1.9,-2.4 43.4,-0.6 c 45.6,-0.6 51.5,-1.1 65.8,-5.6 14.3,-4.5 25.3,-11.1 38.3,-23.2 22.2,-20.6 49.7,-47.90004 49.7,-49.30004 0,-1.3 -3.6,-0.9 -6.7,0.7 -1.5,0.8 -6.6,3.2 -11.3,5.3 -9.4,4.3 -11.8,6.2 -35.3,28.60004 -15.4,14.7 -19.5,17.8 -18.4,13.9 0.3,-1 1.5,-5.9 2.7,-10.8 3.7,-15.1 12.5,-31.60004 21.6,-40.90004 5.4,-5.3 14,-10.8 23.1,-14.6 7.5,-3.2 8.2,-3.2 26.8,-3.7 23.1,-0.7 24.6,-1.2 18.9,-7.6 -13.8,-15.2 -14.3,-40.5 -1.4,-64.5 3,-5.6 3.8,-7.7 2.9,-8.3 -1.6,-0.9 -3.3,0 -8.1,4.3 -11,9.9 -14.9,12.4 -27.3,17.9 -2.1,0.9 -9.5,2.5 -18,3.8 -24.5,4 -39.5,15.6 -46,35.6 -0.9,2.7 -2,5.4 -2.4,6 -0.5,0.5 -1.4,3.5 -2.1,6.5 -3.3,14.9 -8.6,26.6 -16.5,37.2 -13.1,17.40004 -31.7,26.70004 -53.7,26.80004 -15.4,0 -26.9,-3.5 -37.6,-11.5 -7.7,-5.8 -13.1,-13.00004 -16.6,-22.40004 -2.5,-6.4 -2.9,-9.3 -4.1,-24.6 -0.3,-3.9 -1,-9 -1.5,-11.5 -0.6,-2.5 -1.3,-6.2 -1.7,-8.3 -0.3,-2.1 -1,-4 -1.4,-4.3 -0.5,-0.3 -0.9,-2.2 -0.9,-4.3 0,-2.8 -0.6,-4.2 -2.1,-5.2 -1.3,-0.9 -2.4,-3.2 -2.9,-5.9 -1.2,-6.2 -1.2,-18.8 0,-19.5 0.6,-0.3 1,-1.5 1,-2.6 0,-1.1 1.7,-5.5 3.7,-9.7 6.8,-14.4 22.6,-27 38.2,-30.6 5.3,-1.2 5.4,-1.3 7.5,-6.7 4.2,-10.8 19.1,-22.5 32.9,-25.8 3.1,-0.7 20.6,-1.1 52.2,-1.1 44.4,0 47.6,-0.1 48.2,-1.8 1.4,-3.7 8.4,-13.2 12.5,-16.6 5.4,-4.6 9.7,-5.7 20.6,-5.4 l 8.7,0.3 0.3,3.7 c 0.7,8.2 -6.5,22.6 -15.2,30.4 -6.9,6.2 -12,9.3 -19.7,11.9 -3,0.9 -6.2,2.1 -7.1,2.6 -1,0.5 -16.6,0.9 -34.7,0.9 -39.4,0 -47,1.1 -58.8,8.7 -5.4,3.4 -12.5,11.5 -15.4,17.5 -3.4,6.9 -4.9,10.9 -4.9,12.8 0,2.9 -1.5,3.3 -10.6,3.1 -12.4,-0.3 -21.4,3.1 -29.7,11.4 -6.4,6.4 -8.7,11.8 -10.4,23.8 -1.1,8.3 4.6,21.6 12.4,28.7 5.7,5.2 9.2,7.2 15.8,8.9 5.1,1.4 17.2,1.4 18,0.1 0.3,-0.6 1.5,-1 2.6,-1 2.8,0 13.3,-7.3 16,-11.1 8.7,-12.3 9.2,-29.1 1.2,-41.7 -2.6,-4.1 -3.3,-6.3 -3.3,-10.2 0,-2.7 0.5,-5.2 1,-5.5 0.6,-0.3 1,-1.4 1,-2.4 0,-6.4 9.5,-19.6 17.2,-24 10,-5.8 16.3,-6.4 53.8,-5.8 19.8,0.3 35.5,0.1 38.5,-0.4 2.8,-0.6 6.5,-1.3 8.3,-1.6 1.7,-0.3 3.2,-0.9 3.2,-1.3 0,-0.4 1.2,-1.1 2.6,-1.4 4.3,-1.1 13.6,-7.5 18.7,-13 8.9,-9.5 13.6,-19.7 16.6,-36.4 l 1.7,-9.7 13.5,0.1 c 7.3,0 27.2,0.1 44.1,0.2 18.3,0.1 30.9,0.5 31.2,1.1 0.9,1.3 -3.5,11 -6.7,14.7 -2.7,3.1 -8.3,6.3 -14.9,8.4 -2.4,0.7 -10.7,1 -23.4,0.9 -20.9,-0.2 -21.3,-0.1 -21.4,4.7 0,2.1 -1.4,7 -3,10.9 -0.5,1.1 -1.4,3.8 -2,6 -1.3,4.1 -12.3,22.6 -14.7,24.6 -1.7,1.4 -1.7,3.9 0,3.9 0.7,0 3,-1.5 5.1,-3.3 3.7,-3.3 14.6,-9.2 21.3,-11.7 3,-1.1 9.4,-2.3 20,-3.7 4.3,-0.5 23.4,2.2 26.5,3.8 1.2,0.6 1.9,0.5 2.5,-0.5 0.4,-0.7 5.3,-4.3 10.8,-7.9 5.5,-3.6 11.4,-7.6 13,-8.8 4.2,-3 9.4,-10 10.6,-14.1 1,-3.5 0.3,-10.4 -1.2,-11.4 -0.5,-0.3 -0.9,-2.8 -0.9,-5.5 0,-9.2 5,-12.9 17.4,-12.9 9.2,0 13.8,1.3 18.3,5.3 6.1,5.4 7.9,12.4 4.6,18.4 -1,1.8 -9.7,11.3 -19.3,21.2 -25.9,26.5 -31,32 -31,33.1 0,0.5 2.5,4.2 5.6,8.2 9.6,12.5 11.5,17.8 11.6,34 0.1,11.3 0.4,11.4 6.8,3 4.2,-5.7 4.6,-7.2 5.4,-23.7 0.8,-14.7 3.3,-21.8 10.4,-29.3 6.7,-7.1 17.9,-10.4 21.5,-6.4 1.6,1.7 1.7,10.8 1.7,111.3 l -0.1,109.40004 -2.3,4.5 c -2.8,5.6 -8.8,9.9 -13.8,10 -4.6,0 -5.6,1.5 -3.1,4.3 2.9,3.3 4.6,6.4 7.9,14.2 l 2.9,7 0.3,69.4 c 0.2,50.8 0,70.1 -0.8,72.1 -1.6,3.9 -5.6,5.3 -14.3,4.9 -14.9,-0.8 -29.9,-11.5 -37.3,-26.8 -3.3,-6.7 -3.7,-8.2 -3.8,-16.5 -0.1,-7.9 0.3,-9.8 2.6,-14.8 2.7,-5.8 6.1,-10.6 13.3,-18.5 10.4,-11.6 15.7,-20.3 19.8,-32.2 2.4,-7.3 3,-11 3.7,-24.1 0.5,-8.5 0.8,-15.6 0.6,-15.7 -0.5,-0.5 -2.2,1.5 -3.7,4.2 -9.8,18.1 -20.9,29.3 -36.4,36.5 -12.1,5.5 -20.9,7 -36.5,5.9 -13.5,-0.9 -16.9,-1.7 -24.3,-6.1 -2.6,-1.5 -5,-2.8 -5.2,-2.8 -0.3,0 -0.5,1.2 -0.5,2.6 0,3.2 -1.8,11.3 -3.1,13.6 -0.5,1 -0.9,2.4 -0.9,3.3 0,0.8 -1.5,4.3 -3.2,7.7 -5.8,11.3 -19.9,23.2 -30.7,26 -2,0.5 -8.3,1.3 -14.1,1.6 l -10.5,0.7 -0.3,47.4 -0.2,47.5 2.2,2.3 c 2.9,3.1 6.2,3 7.6,-0.2 0.7,-1.4 1.2,-3.3 1.2,-4.2 0,-0.9 1.6,-4.9 3.6,-9 4.9,-10.4 14.2,-19.5 24.9,-24.7 9.2,-4.4 14.7,-9.2 18,-15.6 1.9,-3.9 2.3,-6.5 2.8,-21 0.9,-25.4 3.9,-34.1 15.3,-45.6 5.9,-5.9 18.5,-13.4 22.6,-13.4 0.9,0 1.9,-0.4 2.2,-0.8 0.3,-0.5 2.4,-0.9 4.6,-1 2.3,-0.1 4.6,-0.4 5,-0.7 2,-1.3 2.5,3.7 3.1,31 0.5,27.6 1.4,36.4 4,38.9 0.5,0.6 0.9,1.7 0.9,2.5 0.1,2.2 7.6,13 13.3,19 6.6,7.1 15,13.3 30.4,22.5 7.2,4.3 15.4,9.9 18.2,12.3 9.4,8.2 14.1,19.8 14.1,34.8 0,15.7 -2.2,23.3 -8.7,30 -5.6,5.7 -10.9,7.7 -21.1,7.8 -7.6,0 -9.5,-0.3 -15.2,-3 -7.3,-3.3 -13.4,-9.4 -17.2,-17.1 -2.2,-4.5 -2.3,-5.9 -2.6,-30 -0.2,-17.7 0,-25.8 0.8,-26.7 0.6,-0.8 2.6,-1.5 4.3,-1.7 l 3.2,-0.3 -3,-2.5 c -1.6,-1.4 -6.4,-5.8 -10.6,-9.8 -4.1,-3.9 -7.9,-7.2 -8.3,-7.2 -0.4,0 -0.6,7.6 -0.4,16.9 0.3,15.7 0.2,17 -1.7,19.1 -5.8,6.4 -17,5.4 -22.3,-2.2 -1.5,-2 -1.8,-7 -2.2,-39.8 l -0.5,-37.4 -2.7,-1.5 c -2.5,-1.5 -2.9,-1.4 -5.2,0.8 -2.6,2.4 -2.6,2.7 -2.6,17.4 v 14.9 l -3.7,7.2 c -4.4,8.4 -12,16.4 -18.3,19.3 -2.5,1.1 -6.3,2.8 -8.4,3.8 -6.3,2.8 -12.6,9.3 -15.8,16.2 -5.6,12.3 -3.1,24.8 7,35.2 6.5,6.7 11,8.6 20.2,8.6 8.8,0 15.9,-2.8 22.4,-8.9 4.6,-4.3 6.6,-4.1 6.6,0.8 0,6.7 6.7,22.4 14.4,33.6 4.9,7.2 18.5,20.4 26.1,25.2 19.3,12.4 47.3,17.8 67.7,13.2 7.3,-1.7 12.7,-1.6 25.1,0.6 7.7,1.3 24.3,0.8 32.7,-1 17,-3.6 33.5,-12.5 45.2,-24.6 13.1,-13.5 17.8,-21.6 24.8,-42.5 1.7,-5.1 3.3,-9.5 3.5,-9.7 0.2,-0.2 2.3,1.6 4.7,4.1 2.4,2.4 7,5.6 10.1,7.2 5.1,2.4 6.6,2.7 12.5,2.3 9.60003,-0.8 17.30003,-4.6 22.70003,-11.6 10.3999,-13.2 9.5999,-30.5 -1.9,-42.4 -3.1,-3.2 -5,-4.3 -18.00001,-10.3 -7.50002,-3.5 -15.60002,-11.4 -19.30002,-18.5 -2.6,-5.2 -2.8,-6.4 -3.1,-20.5 -0.4,-17.5 -1.3,-20.5 -5.8,-20.5 -1.7,0 -3.6,0.6 -4.2,1.2 -0.6,0.8 -1.1,14.6 -1.4,37.3 -0.4,41.2 -0.5,41.7 -8.2,45.5 -5.3,2.5 -7.2,2.5 -11.3,0 -5.2,-3.1 -5.8,-5.1 -6.3,-22.4 -0.4,-11.5 -0.8,-16.1 -1.7,-16.4 -0.7,-0.2 -1.3,0.2 -1.3,1 0,0.7 -3.8,5.2 -8.5,9.8 -8.4,8.3 -8.5,8.5 -5.8,9 l 2.8,0.5 v 52 l -3,6 c -6.6,13.2 -16.9,19.5 -32.5,19.5 -7.6,0 -9,-0.3 -13.7,-3 -5.3,-3.1 -12.3,-10.6 -12.3,-13.3 0,-0.9 -0.4,-1.9 -1,-2.2 -1.4,-0.9 -1.3,-27.4 0.1,-31.6 2.4,-7.2 6.8,-15.6 10.3,-19.6 3.8,-4.3 18.3,-14.5 29.5,-20.6 12.4,-6.8 26.2,-20.4 32,-31.6 7.2,-13.9 8.1,-19 8.1,-47.9 0,-15.3 0.4,-26.1 1,-27.2 0.8,-1.5 1.7,-1.8 4.3,-1.3 1.7,0.3 3.7,0.9 4.2,1.3 0.6,0.4 2.8,1.1 5,1.5 10.8,1.9 23.2,10.7 29.4,20.9 5.5,9.2 7.2,16.8 8,37.1 0.6,15.4 1,18.6 2.8,22 3.20002,6.1 7.20003,9.6 16.80003,14.5 17.2999,8.9 27.8999,21.8 30.9999,37.8 0.6,2.8 1.1,3.3 3.2,3 5.8,-0.7 5.8,-0.8 5.5,-52.5 l -0.3,-47.3 h -8.7 c -14.8,-0.1 -26.6999,-5.1 -36.8999,-15.8 -5.20001,-5.3 -6.00001,-6.6 -11.10003,-16.7 -2,-4.2 -5,-16.4 -5.2,-21.3 0,-0.8 -2.1,-0.2 -6.2,1.9 -3.5,1.8 -7.2,3.7 -8.3,4.2 -3.2,1.6 -28.6,2.1 -35.6,0.8 -3.4,-0.7 -6.9,-1.6 -7.8,-2.1 -0.9,-0.4 -3.6,-1.5 -6.1,-2.4 -6.1,-2.1 -16.3,-8.2 -21.8,-13.1 -4.8,-4.2 -15.8,-18.4 -17.3,-22.2 -1.9,-5.2 -2.9,-2 -2.9,9.4 0.1,21.5 5,34 20.4,52.1 12.6,14.9 14.5,17.6 16.6,23.9 5.2,16.2 0.4,33.1 -12.9,45.6 -7.5,7 -15.9,10.8 -25.6,11.4 -9.8,0.6 -12.7,-0.4 -15,-5.3 -1.7,-3.6 -1.8,-7.5 -1.2,-69.4 l 0.6,-65.5 2.6,-8 c 3,-9.4 8.3,-20.2 10.2,-20.9 2.9,-1.1 1.1,-2.6 -3.3,-2.6 -5.9,0 -12.5,-4.4 -15.6,-10.3 -2.6,-5.1 -2.4,7.9 -2,-119.50004 0.2,-101.7 0.2,-103.2 2.2,-105.2 4.1,-4.1 15.8,-1.1 22.1,5.7 3.7,3.9 7.4,10.2 8.3,13.8 0.4,1.6 1.1,9.5 1.5,17.5 l 0.7,14.6 4.3,6.2 c 2.4,3.4 4.8,6.2 5.2,6.2 0.5,0 0.9,-3.7 0.9,-8.1 0,-12.6 4.3,-23.1 14.7,-35.6 2.4,-2.8 4.3,-5.5 4.3,-5.9 0,-0.4 -4.2,-5 -9.3,-10.3 -26,-26.7 -37.6,-39.2 -40.5,-43.6 -4.4,-6.7 -4.3,-10.8 0.5,-16.4 4.9,-5.8 10.6,-8.1 19.6,-8 9.9,0.1 14.6,1.7 17.4,5.8 2.8,4.2 2.9,7.1 0.3,11.3 -2.9,4.8 -2.6,10.5 0.9,15.9 5.1,7.9 19.9,20.2 31.5,26.1 2.9,1.5 4.3,1.6 9.7,0.7 3.5,-0.6 7.8,-1.4 9.5,-1.8 4.2,-1.1 20.8,0.4 28,2.5 7.40002,2.1 17.60003,6.9 21.20003,9.8 3.9,3.3 7.1,4.8 8.8,4.2 1,-0.4 -0.2,-2.6 -4.4,-8.3 -6,-8.1 -13.2,-21.3 -13.2,-24.2 0,-0.9 -0.7,-2.9 -1.5,-4.5 -0.80001,-1.5 -1.50001,-4.3 -1.50001,-6 0,-5.4 -0.7,-5.6 -21.70002,-5.6 -25.8,0 -30.2,-1.1 -38.9,-9.8 -3.8,-3.9 -7.6,-12.3 -6.1,-13.8 0.3,-0.3 14.4,-0.7 31.4,-0.9 17,-0.2 31.6,-0.7 32.40002,-1 0.8,-0.3 6.90001,-0.4 13.50001,-0.3 l 11.9,0.3 0.8,5.5 c 2.0999,15.1 4.5999,22.4 10.8999,32.3 8,12.5 18.1,20.1 32.2,24.5 4.3,1.3 10.8,1.5 42.1,1.3 40.5,-0.2 46.8,0.4 56.2,5.4 10.5,5.7 18.4,18 19.7,30.5 0.6,6.2 0.4,6.8 -2.3,10.5 -7.5,10.4 -8.5,25.3 -2.6,37.9 3.8,8 13.5,15.2 23.7,17.6 8.3,1.9 14.4,1.2 22.1,-2.3 8.5,-4 13.1,-8.1 17.8,-16.2 3.3,-5.8 3.4,-6.3 3.4,-17 0,-10.1 -0.2,-11.4 -2.8,-16.5 -7,-13.6 -20.5,-21 -38.1,-21 -5.3,0 -7.8,-0.4 -8,-1.3 -3,-10.2 -4.2,-13.2 -6.6,-17.1 -7.4,-11.6 -21,-20.4 -34.7,-22.5 -4,-0.6 -21.4,-1.1 -39.7,-1.1 -21.1,0 -32.6,-0.4 -32.6,-1 0,-0.6 -1.3,-1 -3,-1 -7,0 -20.4,-8 -28,-16.7 -5.8,-6.8 -10.9,-17.7 -11.7,-25.3 l -0.6,-6.3 11.8,0.7 c 6.9,0.4 12.9,1.3 14.5,2.1 3.4,1.8 10.2,9.4 14.2,15.7 2.7,4.4 3.3,4.8 7.1,4.9 2.3,0.1 24.5,0.5 49.2,0.9 24.8,0.4 46.8,1.2 49.1,1.7 13.1,3.1 25,12.9 31.1,25.5 3.1,6.3 3.3,6.5 7.5,7 13.1,1.6 30.5,15.1 38.1,29.6 3.5,6.6 6.7,17.7 6.7,23 0,4.7 -3.5,14.2 -5.8,15.8 -1.5,1 -2.2,2.6 -2.2,4.9 0,1.9 -0.4,3.6 -0.9,3.9 -0.5,0.3 -1.1,1.8 -1.4,3.3 -0.3,1.6 -1.1,4.8 -1.8,7.3 -0.6,2.5 -1.4,11.2 -1.8,19.5 -0.6,14.9 -0.7,15.1 -4.5,22.8 -2.9,5.8 -5.7,9.5 -10.8,14.20004 -12.5,11.8 -25.6,16.2 -45.6,15.2 -7.9,-0.4 -13.6,-1.2 -17.6,-2.6 -19.7,-6.9 -35.6,-22.70004 -44.3,-44.10004 -3.6,-8.8 -5.3,-14.1 -5.3,-16.1 0,-3.2 -5.6,-18.8 -8.7,-24 -3.6,-6.3 -11.6,-14 -17.7,-17.1 -9,-4.6 -17.2,-6.9 -34.4,-9.8 -6.7,-1 -19.2,-6.3 -24.3,-10.2 -1.6,-1.3 -5.9,-4.9 -9.5,-8.1 -9.7999,-8.5 -11.9999,-7.6 -5.9,2.6 1.9,3.2 3.5,6.4 3.5,7.1 0,0.6 0.4,1.6 0.9,2.2 1.4,1.5 4.2,14.2 4.8,21.8 0.8,11.4 -3.1,24.8 -9.7,33.1 -5.0999,6.4 -4.7999,6.6 13.3,7 25.6,0.6 41.2,6.6 56,21.8 5.4,5.6 7.9,9.2 12.2,18.1 5.7,11.70004 12,28.40004 11.1,29.40004 -1,0.9 -10.7,-6.4 -19.1,-14.4 -11.5,-10.9 -25,-22.10004 -29.3,-24.30004 -6.4,-3.2 -22.3,-9.3 -22.9,-8.7 -1,1 11.1,14.1 31.8,34.10004 25.8,24.9 33.1,30.3 51.4,37.6 4.1,1.6 15.9,4.9 17.6,4.9 1,0 2.1,0.5 2.4,1 0.4,0.6 1.2,1 1.8,0.9 0.7,-0.1 21.3,-0.1 45.8,0 l 44.5,0.1 3.2,3.1 c 4.2,4.1 4.3,7.8 0.2,11.2 l -3,2.5 -45.7,-0.4 c -35.7,-0.4 -47.4,-0.9 -53.1,-2 -4.1,-0.9 -7.6,-1.3 -7.9,-1 -0.6,0.5 4.5,5.7 26.5,26.8 l 13.2,12.8 v 9.5 c 0,9.1 0.1,9.5 3.1,13 3.5,3.9 7,4.5 11.9,2 2,-1.1 3.1,-2.5 3.6,-4.9 0.8,-4.8 -0.1,-6.7 -4.6,-9.8 -3.5,-2.4 -4,-3.3 -4,-6.6 0,-6.3 6.9,-11.6 16.5,-12.7 14.1,-1.5 31.6,4.7 42.6,15.2 13.2,12.5 19.6,24.1 25,45.3 0.5,1.9 1,12.7 1.2,24 0.3,19.4 0.5,20.9 3,27.3 5.8,14.8 17.4,27.3 31.5,33.9 6.6,3 22.3,3.8 27.3,1.3 5.4,-2.7 7.7,-5.4 9.5,-10.8 1.5,-4.4 1.5,-5.7 0.4,-10.1 -2.4,-9.4 -6.1,-12.6 -17.3,-14.6 -8.4,-1.5 -15,-5.7 -19.3,-12.1 -5.5,-8.2 -6.4,-12.9 -6.4,-31.7 0,-19.2 -0.5,-18.2 8.4,-18.2 6.2,0 16.5,-3.2 22.1,-6.9 4,-2.6 10.9,-11.8 11.8,-15.6 0.3,-1.1 1.2,-3.8 2.1,-6 1.1,-3.1 1.5,-8.3 1.6,-22.2 0,-10 -0.4,-18.4 -0.9,-18.7 -0.5,-0.3 -3.2,1 -6.1,2.9 -2.9,1.9 -6.4,3.8 -7.9,4.1 -1.4,0.3 -3.6,1 -4.9,1.5 -6.1,2.5 -20.6,-0.2 -29.6,-5.5 -5.5,-3.2 -13,-11.5 -16.3,-18 -5,-9.8 -5.3,-12.2 -5.3,-42.9 0,-15.8 0.3,-28.70004 0.8,-28.70004 0.4,0 1.3,0.9 2,2 0.7,1.1 4.3,4.00004 8,6.30004 7.6,4.9 17.6,7.7 27,7.7 5.3,0 6.3,0.3 8.1,2.6 3.1,3.9 2.7,7.1 -1.5,11 -1.9,1.9 -3.9,3.4 -4.4,3.4 -1.6,0 -4,5.8 -4,9.6 0,4.9 4.5,11.9 9,14.1 9.2,4.4 20.4,0.8 25.2,-8.1 1.5,-2.7 1.7,-6.4 1.8,-27.7 v -24.70004 l 5.4,-4.2 c 7.7,-5.9 20,-18.9 24.7,-26.3 8.8,-13.6 16.9,-33.5 20,-49.2 1.8,-9.2 1.5,-33.1 -0.4,-40.5 -5.3,-19.6 -11.5,-29.9 -27.7,-46 -6.9,-6.9 -13.7,-14 -14.9,-15.8 -5.7,-8.2 -7.9,-25 -4.5,-34.9 2.5,-7.2 6.6,-12.7 18.3,-24.3 14.2,-14 18.3,-19.7 24.1,-33.5 6.2,-14.8 8.1,-44 4,-63.5 -4.1,-19.5 -6.6,-26.2 -15.3,-40.5 -6.3,-10.3 -20.6,-25.3 -29.3,-30.8 l -4.4,-2.7 v -22.1 c 0,-22 0,-22.1 -2.7,-27 -3.6,-6.8 -9.6,-9.8 -17.6,-8.9 -6.6,0.7 -10.4,3.1 -12.9,8.1 -3.7,7.2 -1.4,15.6 5.7,20.1 2.5,1.7 3.5,3 3.5,4.9 0,3.9 -2.1,5.1 -9.7,5.6 -13.2,0.8 -21.1,3.2 -29.6,9 -4.4,2.9 -8.1,5.3 -8.3,5.3 -0.2,0 -0.4,-13 -0.4,-28.9 0,-30.6 0.2,-31.9 5.3,-42.1 3,-6 12.1,-15.1 18.1,-18 11.4,-5.4 28.8,-5.6 39.4,-0.4 2.8,1.5 5.2,3 5.2,3.5 0,0.5 0.6,0.9 1.4,0.9 1,0 1.7,-1.6 2.2,-4.7 1,-6.7 -0.2,-30 -2,-36.1 -4.5,-16.4 -16.2,-25 -35.3,-26 l -9.3,-0.4 v -19.3 c 0,-19.2 0,-19.4 2.9,-25.8 1.6,-3.5 4.2,-7.6 5.7,-9.1 3.4,-3.3 12.6,-8.1 17.2,-9.1 5.3,-1.1 10.7,-4.5 14,-8.7 2.5,-3.2 4.2,-12 3.1,-16.1 -1.3,-5.1 -6.3,-10.4 -10.7,-11.7 -19.3,-5.3 -45.8,8.3 -55.7,28.6 -1.5,3.3 -3.3,6.8 -3.9,7.9 -0.5,1.1 -1.4,11.9 -1.8,24 -0.8,22.6 -1.3,28.5 -2.8,32 -0.5,1.1 -1.1,3.2 -1.4,4.8 -2,9.1 -13,26.1 -23,35.4 -10.3,9.7 -20,13.3 -35.9,13.3 -7.9,0 -10.6,-0.4 -13.8,-2 -6.5,-3.3 -7.9,-5.3 -7.9,-11 0,-4.8 0.2,-5.1 4.8,-8.4 5.6,-4.1 6.2,-6.8 2.9,-11.7 -4.1,-6.1 -10.8,-6.4 -15.1,-0.6 -1.6,2.2 -2.2,4.8 -2.6,11.6 -0.7,10.9 -0.8,11 -23.4,34.1 -10.8,11.1 -16.6,17.7 -16.4,18.8 0.4,1.9 1.1,1.9 9.3,-0.3 5,-1.4 13.4,-1.8 49.1,-2.2 46.4,-0.6 48.6,-0.4 52.4,4.4 2.8,3.6 2.5,6.7 -1.1,9.7 l -3.1,2.6 h -44.9 c -24.7,0 -46.8,0.4 -49.1,0.9 -2.4,0.6 -6.8,1.5 -9.8,2.2 -3,0.7 -6.2,1.5 -7,2 -0.8,0.4 -3.3,1.5 -5.5,2.3 -5.3,2.2 -10.8,5.1 -17.5,9.4 -6.2,4 -67,63.9 -67,66.1 0,1.8 3.6,0.8 12,-3.1 12.2,-5.8 20.4,-12 36,-27.2 15.7,-15.4 25,-23.6 26.7,-23.6 1,0 -2,12.2 -5.8,23.9 -5,15.2 -15.1,28.5 -28.9,38.2 -13.3,9.3 -26.7,13.1 -45.8,12.8 -7.3,-0.1 -13.4999,0.1 -13.8999,0.5 -0.4,0.3 0.5,1.9 1.8999,3.4 3.7,3.9 8.4,12.8 10.4,19.7 2.3,8 1.4,19.6 -2.5,31 -2.6,7.9 -9.2999,20.5 -11.2999,21.3 -0.4,0.2 -0.8,1 -0.8,1.7 0,0.7 -1,1.9 -2.2,2.8 -1.3,0.8 -3.9,2.9 -5.8,4.6 -3.8,3.4 -14.40001,8.9 -22.50003,11.6 -2.9,1 -9.8,1.9 -16.5,2.2 -10.5,0.5 -12.3,0.3 -20.2,-2.1 -8.2,-2.5 -8.8,-2.5 -10.7,-1 -1,0.9 -5.1,3.4 -9.1,5.5 -12.4,6.7 -20.5,14.8 -23.7,23.9 -1.7,4.8 -1.6,7 0.7,11.5 4.2,8.3 1.3,16.4 -6.5,18.4 -5.4,1.4 -17.8,1.4 -22.4,0.1 -6.1,-1.7 -12.1,-9 -12.1,-14.6 0,-5.7 4.3,-11.5 22.8,-30.6 10.2,-10.6 21.5,-22.1 25.1,-25.5 l 6.5,-6.3 -3.2,-3.7 c -11.1,-13.2 -17.2,-27.1 -17.2,-39 0,-3.5 0.5,-7.3 1.1,-8.4 0.9,-1.8 0.8,-1.9 -0.9,-1 -2.2,1.2 -6.1,6.1 -9.2,11.7 -2,3.4 -2.2,5.3 -2.2,15.9 0.1,21.1 -3,30.3 -13.4,39.1 -5.3,4.6 -5.9,4.8 -11.6,4.9 -4.8,0 -6.2,-0.4 -7.4,-1.9 -1.2,-1.7 -1.4,-18.5 -1.4,-112.5 0,-107 0.1,-110.7 2,-114.8 2.3,-5.1 9.2,-9.9 15.6,-10.9 4.9,-0.7 5.3,-1.3 2.4,-3.9 -1.1,-1 -2,-2.2 -2,-2.7 0,-0.5 -1.1,-2.6 -2.5,-4.8 -1.4,-2.2 -3.7,-7.5 -5.2,-11.7 l -2.7,-7.8 0.1,-65.8 c 0,-52.1 0.3,-66.3 1.3,-68.2 0.7,-1.4 3.3,-3.4 5.8,-4.6 11.9,-5.8 33.4,3.5 43,18.6 6.9,10.8 8.2,24.2 3.6,35.6 -2.7,6.7 -8,14.6 -11.7,17.6 -3.7,3 -13.5,14.1 -15.1,17 -7.3,13.6 -10,24.8 -9.3,38.3 0.2,5.2 0.6,10.2 0.9,11 0.7,2.8 2.3,2.2 4.3,-1.7 2.5,-4.9 10.1,-14.6 15.2,-19.5 5.1,-5 17.9,-12.2 26.7,-15 6.1,-1.9 9.2,-2.2 21.6,-2.2 16,0 21.8,1.2 31.6,6.4 3,1.7 5.6,3 5.8,3 0.2,0 0.6,-3.2 1,-7.1 1.6,-17.4 11.10003,-34.8 23.40003,-42.6 9,-5.8 14.4999,-7.4 26.2999,-8 l 10.6,-0.5 0.6,-46.7 0.6,-46.6 -2.6,-2.3 c -3.8,-3.4 -5.3,-2.5 -7.5,4.8 -3.4,11.2 -15.4,26.5 -24.5999,31.3 -8.4,4.5 -10.1,5.5 -13.3,7.7 -1.8,1.3 -3.80001,2.9 -4.40001,3.5 -7.00002,7.4 -8.40002,12.6 -8.40002,29.6 0.1,10 -0.4,15.4 -1.6,19.6 -5.9,20.1 -20.5,33.7 -41.3,38.3 -8.7,2 -8.2,3.6 -8.2,-26.7 0,-30.7 -0.8,-36.3 -6.7,-47.6 -3.8,-7.3 -13.4,-18 -21.9,-24.5 -2.3,-1.8 -10.9,-6.7 -19.2,-11 -17.4,-9.1 -21.4,-12 -26.4,-19.3 -5.4,-8.1 -7.1,-15.4 -6.7,-29.6 0.4,-11.3 0.6,-12.2 3.9,-18.9 5.8,-11.3 14.6,-15.9 29,-15.2 11.7,0.6 21.4,6.3 27.9,16.3 2.6,4 2.6,4.2 2.9,26.4 0.2,12.3 0.1,23.4 -0.2,24.6 -0.4,1.6 -1.7,2.4 -5.3,3.1 l -4.8,0.9 8,6 c 4.4,3.2 9.5,7.4 11.3,9.2 1.8,1.8 3.7,3.3 4.2,3.3 0.6,0 1,-6 1,-14.6 0,-15.9 1,-20.1 5.7,-23.1 6.6,-4.4 16.8,-0.4 19.1,7.5 0.8,2.7 1.2,15.3 1.2,40.9 0,34.6 0.1,37.1 1.8,38.6 2.5,2.2 3.5,2.1 5.9,-0.6 1.8,-1.9 2.1,-3.9 2.6,-17.2 0.6,-18.2 2.5,-23.5 10.9,-31.8 5.3,-5.2 15.40002,-11.7 18.30003,-11.7 4.1,0 13.6,-8.5 17.1,-15.1 6.4999,-12.7 5.5999,-24.6 -2.6,-35.5 -4.9,-6.5 -16.5,-12.4 -24.40003,-12.4 -7.1,0 -20,5.6 -23.7,10.3 -1.9,2.4 -3.9,1.5 -3.9,-1.8 0,-3.7 -5.3,-17.8 -9,-23.9 -12.6,-20.8 -30.7,-34.1 -55.7,-41.1 -7.9,-2.1 -11.2,-2.5 -23,-2.5 -8.1,0.1 -16.5,0.7 -20.3,1.5 -3.6,0.8 -8.7,1.4 -11.5,1.4 -2.7,0 -7.9,-0.6 -11.5,-1.4 -7.3,-1.6 -31.1,-1.8 -37.5,-0.3 z m -281.2,398.1 c 12.2,4.4 17.7,7.6 25,14.6 11.3,10.7 17.5,21.7 22,38.6 3.8,14.2 7.5,24.8 10.3,30 8.2,14.5 23.9,24.3 44.4,27.5 15.6,2.5 27.7,8.6 41,20.7 5.2,4.8 10.8,10.5 12.5,12.7 1.6,2.3 3.2,4.3 3.5,4.6 1.6,1.3 6.2,8.2 9.5,14 3.3,5.9 8.5,19.6 8.5,22.7 0,0.6 0.7,1.8 1.5,2.7 1.3,1.3 4.4,1.5 19.3,1.2 24,-0.4 31,1.3 38.9,9.6 3,3.1 7.3,11.5 7.3,14.3 0,1 -8.2,1.3 -39.7,1.7 -21.9,0.2 -42.1,0.2 -45,0 l -5.2,-0.4 -0.6,-4.6 c -1.5,-10.9 -4.9,-22.7 -8.1,-28.4 -1.9,-3.3 -3.4,-6.2 -3.4,-6.5 0,-0.2 -1.6,-2.1 -3.5,-4.1 -1.9,-2 -3.5,-4 -3.5,-4.4 0,-1.1 -15,-10.8 -17.8,-11.4 -1.5,-0.4 -3.1,-1 -3.7,-1.4 -2.7,-2 -9,-2.4 -46.5,-2.9 -45.6,-0.7 -46,-0.8 -57.4,-8.5 -12.8,-8.8 -21.6,-30.1 -15.8,-38.3 10.1,-14.4 9.6,-33.4 -1.1,-45 -5.4,-5.9 -9.1,-8 -18.3,-10.4 -7,-1.8 -8.5,-1.9 -13.4,-0.8 -16.6,3.7 -25.9,12.2 -30.5,27.4 -2,6.7 -1.9,10.5 0.5,18.5 3.1,10.5 9.1,17.8 18.5,22.4 8.4,4.1 12.2,4.9 20.7,4.3 l 7.9,-0.6 1.3,3.2 c 0.8,1.8 2.7,6.3 4.2,10.2 2.2,5.6 4.2,8.4 9.8,14 6.9,6.8 10.6,9.2 21.1,13.1 4.5,1.7 8.8,1.9 41.5,2.2 21.1,0.2 36.9,0.7 37.5,1.3 0.5,0.5 1.8,0.9 3,0.9 5.5,0 21.4,10.2 28.8,18.5 5.5,6.2 9.8,16.6 11.1,26.7 l 0.6,4.8 h -9.4 c -5.1,0 -10.9,-0.3 -12.7,-0.7 -4.8,-0.9 -13.3,-9.9 -16.9,-17.8 l -2.9,-6.4 -51.3,-0.3 -51.3,-0.4 -7.3,-2.6 c -11.4,-4.1 -23.3,-15.8 -25.6,-25.1 -1,-4.2 -4.1,-6.7 -8.3,-6.7 -7.8,0 -15.8,-3.8 -23.4,-11.2 -10.2,-9.8 -16.2,-20.6 -17.8,-32.2 -1.6,-11.3 0.3,-25.6 3.3,-25.6 0.9,0 1.6,-2 2,-5.6 0.3,-3 1.5,-8.1 2.6,-11.2 1.4,-4 2,-8.3 2,-14.7 0,-10.5 2.7,-22.3 6.7,-29.8 4.1,-7.5 15.6,-18.7 22.8,-22.2 11.8,-5.6 16.3,-6.5 30.5,-6.1 9,0.3 11.9,0.9 20.3,3.9 z m 702.19993,-1.8 c 13.9,3.7 26.9,14.2 33,26.9 3.5,7.3 4.4,13 6,36.1 0.6,7.5 1.7,12.9 3.6,16.6 0.4,0.9 1.1,3.2 1.4,5.2 0.4,2.1 1.4,3.7 2.4,4 2.3,0.6 3.1,4.7 3.1,15.5 0,15.4 -4.9,26.9 -16.4,38.6 -6.6,6.7 -19.1,13.6 -24.5,13.6 -4.2,0 -8.1,1.7 -8.1,3.5 0,3.2 -6.6,13.9 -11.2,18 -4.5,4.1 -12.8,8.7 -20.8,11.6 -2.6,1 -16.4,1.5 -53.7,1.9 l -50.2,0.5 -2.5,3.8 c -1.4,2.1 -2.6,4 -2.6,4.4 0,1.3 -8.8,10.8 -12.4,13.5 -3.7,2.7 -4.4,2.8 -14.8,2.8 h -10.8 v -2.8 c 0,-7.3 5.1,-19.9 10.7,-27 7.8,-9.7 13.2,-13.6 25.3,-18.3 1.9,-0.8 4,-1.4 4.5,-1.5 0.6,0 1.8,-0.4 2.8,-0.7 0.9,-0.4 2.4,-0.9 3.2,-1.2 0.9,-0.2 16.3,-0.5 34.3,-0.5 30.1,-0.1 37.7,-0.6 43.7,-3 17.2,-6.7 26.5,-16.3 31.5,-32.5 2.2,-7.2 1.9,-7 12.1,-7.2 14.7,-0.4 23.1,-4 31.6,-13.8 5.1,-5.7 7.5,-13.2 7.5,-22.9 -0.1,-23.5 -24.3,-40.9 -46.8,-33.7 -7.3,2.4 -11.2,4.7 -15.7,9.4 -3.4,3.4 -7.3,10.8 -8.5,16.2 -1.6,7.2 1.3,20.1 5.9,26.6 2.9,4.1 3.3,7.9 1.4,15.4 -3.6,14.3 -10.3,22.8 -23.3,29.2 l -7.7,3.8 -41,0.6 c -22.5,0.4 -42.6,1.1 -44.7,1.7 -13.8,3.7 -29.8,16.9 -35.5,29.2 -4.7,10 -7.2999,19.3 -7.2999,25.8 0,3.6 -0.5,6.4 -1.3,7 -0.9,0.7 -15,0.9 -45.60003,0.5 -36.6,-0.5 -44.4,-0.9 -44.8,-2 -1.1,-2.7 5,-12.6 10.1,-16.4 8.1,-6.1 12.1,-6.9 35.1,-6.9 h 20.20002 l 1.1,-2.5 c 0.7,-1.4 1.2,-3.3 1.2,-4.1 0,-3 8.40001,-22 11.90001,-26.9 2,-2.7 6.6,-8.1 10.3,-12 3.5999,-3.8 7.5999,-8.2 8.6999,-9.7 2.1,-2.7 12.9,-11.4 16.6,-13.4 1.1,-0.6 4,-2.2 6.5,-3.6 2.5,-1.3 7.7,-3.2 11.5,-4.2 3.9,-0.9 8.4,-2.1 10,-2.6 1.7,-0.5 4.8,-1.2 7,-1.6 5.4,-0.9 17.8,-6.7 23.6,-11 4.5,-3.3 14.9,-16.1 14.9,-18.4 0,-0.6 0.4,-1.8 1,-2.8 0.8,-1.5 4.1,-8.9 4.5,-10.2 0,-0.3 1.1,-4.8 2.3,-10 1.3,-5.2 2.6,-10.4 3.1,-11.5 0.5,-1.1 1.7,-4 2.7,-6.5 7.9,-19.5 29.7,-38 48.3,-41.1 2.9,-0.4 5.6,-1.1 6,-1.5 1,-1.1 23.3,0.5 29.6,2.1 z m -821.79993,52.1 c 7,3.4 13.8,10 16.3,15.8 4.3,10.1 1.4,25 -6.2,31.7 -4,3.5 -8.8,5.9 -11.8,5.9 -1.9,0 -2.1,0.4 -1.5,2.7 0.3,1.6 2.7,7.1 5.3,12.3 6.5,13.5 15.8,22.6 30.2,29.9 14.9,7.6 20.5,11.5 28.5,20 17.6,18.7 22,22.6 29,26.1 6.7,3.3 7.6,3.5 20.5,4 l 13.5,0.5 0.3,7.1 c 0.3,6.7 0.2,7.1 -2.3,8.2 -3.3,1.5 -28.5,1.6 -35.7,0.1 -6.1,-1.3 -19.5,-8.1 -24.1,-12.2 -8.5,-7.6 -13.5,-11.5 -19.4,-15.4 -6.5,-4.2 -19.9,-10.3 -22.7,-10.3 -0.8,0 -1.7,-0.4 -2,-0.9 -0.3,-0.4 -2.1,-1.1 -3.9,-1.4 -11.4,-1.8 -27.4,-11.3 -38.4,-22.5 -16.2,-16.7 -24.7,-34.8 -26,-55.9 -0.7,-11.4 0.8,-19.3 5.6,-28.7 5.3,-10.6 12.9,-17 23.5,-19.7 5.4,-1.4 15.6,-0.2 21.3,2.7 z m 925.79993,-0.8 c 10.4,4.2 18.3,13 22.5,25.1 2,5.8 2.2,7.7 1.7,20 -0.4,10.2 -1,14.8 -2.5,18.6 -4.9,12.4 -5.6,14.1 -6.9,15.6 -0.7,0.8 -1.3,1.9 -1.3,2.4 0,1 -8.3,12.7 -13.2,18.6 -2.1,2.5 -6.7,6.9 -10.1,9.6 -6.2,5.1 -24.4,15.3 -27.2,15.3 -0.9,0 -2.3,0.4 -3.3,0.9 -0.9,0.5 -4.6,1.7 -8.2,2.7 -13.4,3.6 -17.2,5.9 -38,21.9 -5.8,4.5 -11.2,8.5 -12,8.8 -0.8,0.4 -2.2,1.1 -3,1.6 -6.1,3.6 -14.6,5.1 -29.4,5.1 -13.7,0 -19,-1 -20.5,-3.9 -0.5,-0.9 -0.6,-4.1 -0.3,-7.1 l 0.7,-5.5 13,-0.6 c 12.6,-0.5 15.3,-1.1 24.9,-5.4 3.9,-1.7 13.8,-10.2 16.4,-14 7.3,-10.5 20.8,-21.5 36.7,-30 9.9,-5.3 10.5,-5.6 15.7,-9.3 6.7,-4.6 14.6,-15.4 18.5,-25.2 0.6,-1.4 1.8,-4.3 2.7,-6.4 1.9,-4.4 1.2,-5.6 -3.5,-5.6 -5.1,0 -13.7,-8.6 -16.3,-16.3 -5.6,-16.6 5.7,-35 23.8,-38.7 5.4,-1.1 14.1,-0.3 19.1,1.8 z m -970.69993,102.7 c 9.1,4.6 13,17.9 7.4,25.4 -2.8,3.9 -9.1,7.1 -13.8,7.1 -10.4,0 -17.4,-7 -17.4,-17.3 0,-12.4 12.9,-20.6 23.8,-15.2 z m 1004.19993,0 c 6.8,3.5 10.6,13.2 8.1,20.8 -1.5,4.6 -6.9,9.3 -12.1,10.7 -3.3,0.9 -5.2,0.8 -9.4,-0.4 -5.8,-1.7 -7.8,-3.4 -10.1,-8.8 -3.1,-7.7 0.6,-16.8 9,-22 3.6,-2.2 10.5,-2.3 14.5,-0.3 z m -964.89993,34.9 c 4.1,2.2 12.3,4.8 24.4,7.7 7.1,1.8 16.8,7.1 22.2,12.2 2.9,2.7 5.3,5.6 5.3,6.4 0,1.2 -4.6,1.3 -28.4,1.1 l -28.4,-0.3 -3.9,-3.1 c -7.1,-5.7 -9.3,-14.5 -5.3,-21.2 3.4,-5.6 7.4,-6.3 14.1,-2.8 z m 921.49993,0.1 c 3.4,2 4.5,3.3 5,6 1.4,7.5 -3.6,16 -11.5,19.4 -4.7,2 -6.6,2.1 -30.5,2.1 -20.2,0 -25.6,-0.3 -25.6,-1.3 0,-2.2 10.3,-11.5 15,-13.4 4.7,-2 11.8,-4.3 21,-6.8 3,-0.9 8.7,-3.1 12.5,-5 3.9,-1.8 7.6,-3.4 8.4,-3.4 0.8,-0.1 3.4,1 5.7,2.4 z m -793.59993,54.5 c 1.8,1 2.1,1.9 1.8,7.3 l -0.3,6.2 -10.5,0.6 c -5.8,0.3 -12.9,1.1 -15.9,1.8 -5.4,1.3 -14.8,6 -19.2,9.6 -2.9,2.4 -11.1,12.1 -16.1,19 -5.8,8 -8.4,9.9 -23.8,17.6 -23.1,11.5 -28.7,16.2 -35.9,30.6 -3.1,6.2 -6.5,15.3 -5.9,15.7 0.2,0.1 2.1,0.8 4.3,1.5 5.8,1.9 11.6,7.1 14.9,13.1 2.5,4.5 2.8,6 2.4,11.8 -0.7,12.3 -7.2,22.5 -17.5,27.8 -5.2,2.6 -6.8,2.9 -14.8,2.9 -7.5,0 -9.8,-0.4 -14,-2.5 -8.2,-4.1 -14.1,-11.1 -19.4,-23 -3.3,-7.4 -4.1,-24.8 -1.6,-34.4 4.3,-16.4 11.6,-28.7 25,-42.2 12.6,-12.6 25,-20.6 38.5,-24.8 5.7,-1.8 7,-2.3 13.2,-5 2,-0.9 4.1,-1.6 4.7,-1.6 1.7,0 12,-6.8 19.6,-12.9 10.8,-8.8 16.7,-12.8 23.6,-16.2 5.5,-2.8 7.9,-3.3 17.4,-4 13.4,-0.9 26.7,-0.4 29.5,1.1 z m 698.49993,1.2 c 6.1,2.1 9.4,4.3 27.2,18 12.3,9.4 19.6,13.3 34.4,18.2 17.5,5.9 27.6,11.9 39.7,23.8 9.9,9.7 16.6,18.6 21.2,28.3 5.7,12 6.4,15.4 6.5,31 v 14 l -4.1,8.5 c -5.4,11.3 -11.7,17.7 -20.5,20.8 -17.5,6.1 -33.1,-0.7 -41.9,-18.2 -2.5,-4.8 -2,-17.3 0.9,-22.8 3.2,-6.4 7.8,-10.5 14.2,-12.8 6.5,-2.3 6.5,-2.9 1.3,-13.8 -4,-8.3 -4.6,-9.2 -12.8,-17.9 -6.5,-6.9 -6.2,-6.7 -19.3,-13.2 -15.6,-7.7 -21.3,-12 -32.6,-24.7 -13.4,-15.1 -22.1,-21.8 -31.4,-24.3 -2.1,-0.6 -9.2,-1.3 -15.8,-1.7 -7.1,-0.4 -12.3,-1.1 -12.7,-1.8 -1.3,-1.9 -0.9,-9.1 0.6,-11.1 1.9,-2.7 8.3,-3.4 24.6,-2.8 10.9,0.4 16,1 20.5,2.5 z m -773.49993,-0.3 c 0,0.5 -2.3,3 -5.2,5.6 -6.1,5.5 -18.5,11.6 -28.3,14 -13.2,3.1 -14.2,3.5 -18,6.5 -3,2.4 -4.7,3 -8.7,3 -4.4,0 -5,-0.3 -6.8,-3.3 -3.8,-6.1 -2.1,-15.6 3.6,-20.8 6.3,-5.8 6.7,-5.8 36.2,-5.9 15.6,0 27.2,0.4 27.2,0.9 z m 865.59993,2.7 c 8,6.5 10.6,13.3 7.7,20.5 -2.8,7.1 -9.9,8.4 -15.8,2.9 -1.1,-1 -4.5,-2.5 -7.5,-3.3 -26.2,-7.5 -31.9,-10 -39.2,-17.2 -2.7,-2.5 -4.8,-5.1 -4.8,-5.6 0,-0.6 10.2,-0.9 27.9,-0.7 l 27.9,0.3 z m -955.59993,26.9 c 4.6,2.4 8,8.4 8,14.4 0,6.3 -1.8,10.1 -6.5,13.7 -7.5,5.7 -16.9,5 -22.9,-1.6 -3.2,-3.5 -3.6,-4.6 -3.6,-9.3 0.1,-14.6 12.9,-23.5 25,-17.2 z m 1003.49993,1.9 c 10.2,7.8 9.2,22.7 -1.8,28 -8.5,4 -20.6,-0.6 -23.8,-9.1 -2.5,-6.6 0.5,-16 6.3,-20 4.9,-3.4 14.1,-2.8 19.3,1.1 z"
     id="path1" />
  <path
     d="m 490.56437,592.69176 c 0,0.5 1.9,1.4 4.3,2.1 10.3,2.7 23.7,13.9 28.9,24.1 4.7,9.1 6.1,14.6 5.9,23.6 -0.1,9.3 1.7,17.9 5.6,25.6 3.2,6.5 12.5,15.4 19.9,19.1 5.3,2.7 7.1,3 17.2,3.3 7.6,0.3 11.2,0 11.2,-0.7 0,-0.6 -0.9,-1.1 -1.9,-1.1 -1.1,0 -2.2,-0.4 -2.6,-0.9 -0.3,-0.5 -2,-1.3 -3.8,-1.6 -6.6,-1.5 -12.4,-5.1 -19.2,-11.9 -10.9,-11 -13.7,-18.2 -15,-38.6 -0.6,-7.9 -1.3,-11.8 -3.1,-15.7 -1.3,-2.8 -2.4,-5.5 -2.4,-5.9 0,-0.9 -6.8,-9.3 -9.3,-11.6 -4.2,-3.8 -11.9,-8 -16.9,-9.4 -6,-1.6 -18.8,-1.9 -18.8,-0.4 z m 688.90003,0.5 c -7.2,2.6 -12,5.7 -17.4,11 -9.2,9.3 -13,19.2 -14,36.8 -0.3,5.9 -1.1,12 -1.7,13.5 -4.5,11.1 -8,16.6 -14.6,22.8 -4.8,4.6 -12.4,8.7 -19.6,10.6 -7.8,2.1 -5.4,3.1 5.6,2.5 8.8,-0.6 11.1,-1.1 17.4,-4.1 10,-4.7 15.7,-10.2 20.1,-19.5 3.4,-7 3.8,-8.5 4.4,-20.1 1,-16.3 1.8,-20.2 5.9,-27.8 5.7,-10.7 16.3,-19.7 27.4,-23.3 2.8,-0.9 5.2,-2.1 5.4,-2.7 0.5,-1.7 -14.3,-1.4 -18.9,0.3 z m -831.40003,-327.6 c -0.3,0.2 -0.5,5 -0.5,10.7 v 10.2 l 17.8,0.5 c 22.9,0.6 30,2.1 43.9,9.2 11.1,5.7 19.6,12.6 27.4,22.3 11.2,13.9 15,25.1 15.3,44.7 0.2,14.6 0.9,16.8 7.5,23.2 7.6,7.3 13.1,11.6 13.1,10.2 0.1,-0.8 0.2,-9.3 0.3,-18.9 l 0.2,-17.5 h 9.5 c 9.9,0 10.2,0.1 23.8,6.8 5.9,2.9 15.8,12.1 19.7,18.2 1.7,2.7 4.5,8.4 6,12.5 2.6,6.8 2.9,8.7 2.9,20.5 0.1,12.9 -0.6,16.7 -4.8,25.4 -0.6,1.3 -1.1,4.3 -1.1,6.6 0,4.7 2.5,8.3 15,21.5 3.9,4.1 12.9,13.6 19.9,21 20,21.1 38.8,39.2 39.9,38.1 0.7,-0.7 -1.7,-5 -9.8,-16.9 -9.4,-13.9 -20.5,-33.3 -20.5,-35.7 0,-0.4 -0.6,-2.1 -1.4,-3.8 -2,-4.4 -4.8,-14 -7.7,-26.7 -0.9,-3.9 -1.4,-17.7 -1.7,-47.2 l -0.3,-41.6 29.1,0.5 c 24.4,0.5 29.3,0.4 30.1,-0.8 0.5,-0.8 0.9,-15.9 0.9,-33.6 0,-30 -0.1,-32.6 -2,-37.7 -5.4,-14.2 -19.9,-22.7 -34.7,-20.4 -11.2,1.7 -18.9,7.8 -22.6,17.8 -3.3,9 -1,18.8 6.2,25.9 5.6,5.5 10.2,7.1 21.1,7.1 h 8 v 4.7 c 0,2.7 -0.3,5.8 -0.6,7 l -0.6,2.3 h -42.8 c -40.2,0 -43.2,-0.1 -49.4,-2 -12.5,-3.9 -24.4,-15.7 -28.3,-28 -1.2,-4 -1.7,-9.5 -1.9,-19.8 -0.1,-9.4 -0.6,-14.8 -1.3,-15.5 -0.9,-0.9 -17.4,-1.2 -63.2,-1.3 -34,0 -62.2,0.2 -62.4,0.5 z m 905.30003,-0.2 c -34.9,0.3 -35.8,0.4 -36.9,2.4 -0.6,1.2 -1.1,8 -1.3,15.7 -0.1,12.3 -0.4,14.4 -2.9,20.9 -4.2,10.8 -12.6,19.3 -23.2,23.5 -10.1,3.9 -10.8,4 -53.3,3.9 -38.7,0 -41.8,-0.2 -43,-1.8 -1.2,-1.7 -1.1,-9.1 0.2,-11.1 0.3,-0.5 4.8,-1.2 10.1,-1.5 13.9,-0.9 19.3,-4.5 23.6,-15.7 4.8,-12.6 -1.1,-26.5 -13.6,-32.1 -5.3,-2.4 -16,-4 -18.8,-3 -1.2,0.5 -4.1,1.4 -6.5,2 -7.4,2 -16.1,12 -19,21.7 -1.4,4.9 -1.7,66.1 -0.3,68.3 0.7,1.1 5.9,1.3 30.2,1 l 29.4,-0.4 v 38.5 c 0,26 -0.4,40.3 -1.2,44 -0.6,3 -1.9,9.2 -2.8,13.7 -3.5,17.9 -15.2,42 -32.3,66.5 -10.4,14.9 -7,13.2 12.8,-6.4 7.4,-7.4 15.1,-15.2 17,-17.4 1.9,-2.3 10.5,-11.4 19,-20.3 15.3,-16 21,-23.5 21,-27.8 0,-1.2 -1.4,-5.7 -3.1,-10 -6.3,-15.5 -4.9,-33.4 3.8,-51.3 4.2,-8.7 15,-18.8 25.3,-23.6 9.3,-4.5 20.1,-7 25.5,-6 l 3.5,0.7 v 18.3 c 0,10 0.3,18.6 0.6,18.9 0.7,0.7 9.1,-5.8 13.8,-10.7 4.7,-4.9 5.8,-9 6.7,-24.1 0.8,-15.2 1.2,-17 5.5,-26 10.1,-21.5 23.9,-34.6 45.9,-43.6 1.1,-0.4 4.7,-1.5 8,-2.4 3.3,-0.9 7.4,-2.1 9.1,-2.6 1.7,-0.5 10.3,-0.9 19.1,-0.9 h 16 l 0.7,-10.1 c 0.4,-5.6 0.5,-10.4 0.2,-10.7 -0.7,-0.7 -44.5,-0.9 -88.8,-0.5 z m -456.80003,69.2 c -7.3,3.9 -9.8,11.2 -5.8,17.1 5.2,7.7 14.2,9 19.9,2.9 6.4,-6.8 3.8,-16.5 -5.4,-20.4 -4.5,-1.9 -4.5,-1.9 -8.7,0.4 z m 87,-0.3 c -8.3,3.5 -10.3,13.4 -3.9,20 5.4,5.6 13.6,5.5 19,-0.2 1.9,-2 2.4,-3.6 2.4,-7.9 0,-6 -2.5,-9.7 -8.2,-12.1 -4,-1.7 -4.9,-1.7 -9.3,0.2 z"
     id="path2" />
  <path
     d="m 579.59467,396.69176 c -0.4,0.7 -0.4,8.5 0,17.3 0.9,19.6 0.9,20.5 1.8,21.3 0.4,0.4 0.7,1.7 0.7,2.9 0,6.3 11,31.3 17.7,40.2 1.2,1.5 3.9,5.1 6,7.9 5.8,7.9 23.4,25.7 33.8,34.4 5,4.1 17.8,12.4 25.1,16.2 10.4,5.5 35.8,13.5 37,11.7 0.3,-0.5 -3.2,-3.3 -7.8,-6.3 -9,-6 -18.1,-14.1 -21.8,-19.6 -1.4,-1.9 -3,-4 -3.7,-4.5 -1.8,-1.5 -9.3,-17.1 -11.1,-23 -2.3,-8.2 -3,-15.2 -3,-30.5 0,-14.2 0.2,-17.4 2.8,-33.3 1.5,-9.2 0.1,-12.7 -2.1,-5.4 -1.8,6.4 -5.7,11.7 -11.3,15.4 -5.7,3.9 -9.7,5.1 -19.4,6 -6.7,0.6 -7.7,0.4 -14.5,-2.7 -8.2,-3.7 -13.5,-8.2 -18.1,-15.5 -5.9,-9.3 -7.5,-14.1 -8.4,-24.9 -0.7,-7.5 -2,-10.3 -3.7,-7.6 z m 528.20003,1.7 c -0.4,0.3 -0.7,2.8 -0.7,5.4 0,9.9 -5.2,23.4 -11.9,31.1 -8.5,9.7 -25.4,14.9 -37.6,11.7 -12.3,-3.2 -20.1,-10.7 -22,-21.2 -0.4,-2 -1.2,-3.7 -1.7,-3.7 -1.2,0 -0.5,9.2 1.6,22 1.9,11.3 2.2,34.9 0.6,41.1 -3.5,13.6 -7.6,24.1 -12.2,31.4 -7,11 -20.7,23.7 -32.00003,29.5 -4.6,2.4 -5.6,4.6 -1.5,3.5 8.60002,-2.3 16.50003,-4.8 17.90003,-5.6 1,-0.5 2.4,-0.9 3.2,-0.9 3.1,0 19.8,-8 28.3,-13.5 14.6,-9.5 32.9,-26.2 44.4,-40.5 4.2,-5.2 13.9,-19.5 13.9,-20.5 0,-0.4 1.5,-3.7 3.3,-7.3 1.8,-3.7 3.9,-8.7 4.6,-11.2 0.7,-2.5 1.7,-5.6 2.2,-7 2.6,-8.2 5,-36.4 3.5,-42.3 -0.6,-2.6 -2.5,-3.5 -3.9,-2 z m -385.70003,41.7 c -11.8,2.9 -22.3,11.7 -28.1,23.5 -3,5.9 -3.4,7.7 -3.7,16.8 -0.4,9.9 -0.3,10.3 3.1,17.5 8.3,17.1 23.9,27.8 40.7,27.8 7.5,0 13.5,-1.8 24.6,-7.2 3.9,-1.9 13.9,4.7 19.4,12.7 9.2,13.4 -4.5,25.1 -32,27.4 l -7.5,0.6 12,4.4 c 16.7,6.1 26.5,12.7 35.6,24.1 3.9,4.7 9.9,16.2 9.9,18.9 0.1,0.9 0.7,2.7 1.4,4 1.1,2 1.3,-2.6 0.9,-29 -0.2,-17.3 -0.6,-33.8 -0.9,-36.7 -1,-9.2 -6.9,-19.3 -17.6,-29.9 l -9.2,-9.2 2.2,-4.6 c 3.2,-6.7 4.5,-12.1 4.5,-20.2 0.2,-19.9 -14.4,-37.7 -33.7,-41.2 -7.3,-1.3 -15.6,-1.2 -21.6,0.3 z m 223,0 c -8.1,1.8 -13,4.7 -19.3,11.5 -8.9,9.7 -11.7,17.1 -11.7,31.2 0,9.8 0.4,11.5 4.9,20.6 1.5,3.2 1.5,3.3 -0.9,5 -5,3.4 -15.1,13.7 -18.2,18.5 -6.8,10.7 -7.2,12.8 -7.8,49.3 -0.3,18.1 -0.8,33.4 -1,34 -0.3,0.5 -0.1,1.1 0.4,1.3 0.6,0.2 1.5,-1.4 2.2,-3.5 3.9,-12.5 16.7,-28.4 28.9,-36 6.1,-3.8 15.8,-8.3 25,-11.4 l 5,-1.7 -4.5,-0.1 c -2.5,-0.1 -8.2,-0.8 -12.8,-1.6 -9.3,-1.6 -21.8,-7.7 -24,-11.6 -3.3,-6.1 1.2,-16.2 10.3,-23.1 6.5,-5 8.6,-5.5 12.2,-2.9 4.9,3.6 14,6.1 22,6.1 15.6,0 29.5,-7.5 38.5,-21 13.00003,-19.3 5.90003,-49.4 -14.2,-60.4 -9.7,-5.3 -23,-6.9 -35,-4.2 z m -139.9,78.2 c -5.7,4.8 -4.7,13.6 1.8,16.4 6.2,2.5 13.1,-2 13.1,-8.6 0,-2.8 -0.8,-4.4 -3.4,-7 -4.1,-4.1 -7.3,-4.3 -11.5,-0.8 z m 69,1 c -2.5,3.2 -2.8,5.3 -1.6,11.1 0.9,3.8 8.3,6.5 13,4.7 3.7,-1.5 5.7,-9.4 3.3,-13.7 -1.8,-3.4 -4,-4.6 -8.5,-4.7 -3.3,0 -4.6,0.5 -6.2,2.6 z m 187.70003,33.9 c -1.5,1.4 -3,2.5 -3.3,2.5 -0.4,0 -3.9,2 -7.8,4.4 -16.8,10.2 -29.7,14.5 -52.70001,17.7 -4.10002,0.5 -9.30002,1.5 -11.50002,2 -2.2,0.6 -4.7,1.3 -5.5,1.5 -2,0.5 -7.5,2 -13,3.7 -7.8,2.3 -18.3,7.9 -24,12.8 -6,5.1 -17,19.6 -17,22.3 0,1 -0.5,2.7 -1.1,3.8 -1.7,3.2 -1.3,23.7 0.6,30.3 2.4,8.2 4.3,11.3 10.4,17.5 8.2,8.3 15,11.8 26.7,13.7 7.2,1.2 22.1,-4 29.8,-10.3 4.90002,-4.1 10.20003,-13.6 11.60003,-20.8 1.4,-7.5 0.2,-15 -3.7,-23.3 l -2.40001,-5.2 4.20001,-5.8 c 2.4,-3.2 4.5,-6 4.8,-6.3 0.3,-0.3 5.3,-5.5 11.1,-11.5 5.8,-6.1 18.7,-19.4 28.8,-29.7 15.9,-16.4 20.3,-21.8 17.4,-21.8 -0.4,0 -1.9,1.1 -3.4,2.5 z m -435.80003,-0.1 c 0,2.1 7.3,10 34.1,37.1 13.1,13.2 24.8,25.3 26.1,27 1.2,1.6 3.1,3.9 4,4.9 2.2,2.4 2.2,2.8 0,6.8 -8.2,14.9 -5.5,32.4 6.9,44.7 9.5,9.6 23.9,13.3 37.4,9.7 20.3,-5.4 32.4,-22.4 32.5,-45.6 0,-14.2 -4.1,-24.1 -14.4,-34.8 -5.4,-5.7 -16.3,-14.2 -18.1,-14.2 -0.4,0 -2.1,-0.6 -3.8,-1.4 -7.7,-3.5 -24,-7.8 -36.2,-9.6 -14.6,-2.2 -18.2,-3 -25.5,-5.4 -15.1,-4.9 -27,-10.5 -36.2,-16.7 -6.5,-4.4 -6.8,-4.5 -6.8,-2.5 z m 765.00003,207.6 c -4.5,0.8 -12.4,4.4 -14.8,6.7 -9.8,9.5 -12.8,26.6 -6.2,35 1.1,1.4 2,3 2,3.5 0,1.6 7.4,7.9 11.5,9.7 5.9,2.6 9.9,3.2 15.6,2.1 6.8,-1.3 11,-3.4 15.4,-7.8 6,-5.9 8.6,-12.4 8.7,-21.3 0.1,-6.8 -0.2,-8.1 -3.1,-13.2 -6.1,-10.6 -17.9,-16.6 -29.1,-14.7 z m -1107.40003,2.4 c -7.3,3.1 -10.6,6.2 -14.1,13.4 -3.9,7.8 -4,17.4 -0.3,24.7 3.5,6.7 11.4,14 16.9,15.6 24.1,6.8 45.6,-17 35.5,-39.3 -4.8,-10.7 -12.2,-15.6 -24.9,-16.4 -6.1,-0.4 -8.1,-0.1 -13.1,2 z m 278.3,120.5 c -2,0.4 -6.1,2 -9,3.5 -15.4,7.8 -22.9,21.6 -22.9,42.5 -0.1,16.3 -4,26.1 -14.8,36.8 -4,4 -8.2,6.7 -14,9.5 -7.6,3.4 -9.2,3.8 -16.5,3.8 -6.1,0 -7.8,0.3 -6.9,1.2 1.3,1.3 4.4,1.7 16.7,1.9 7.9,0.1 9.9,-0.2 16.3,-2.9 14.5,-6 22.2,-13.6 27.1,-26.6 2.3,-6.3 3.1,-10.4 3.6,-18.6 0.8,-12.1 1.7,-16.5 5,-23.5 2.8,-6.1 8.2,-12 15.5,-17.2 6.5,-4.5 8.7,-5.7 16,-8.3 3,-1 5.3,-2 5,-2 -2.6,-0.6 -18.3,-0.6 -21.1,-0.1 z m 548.60003,1.1 c 0.3,0.5 1.2,1 1.9,1 0.6,0 4.8,1.7 9.2,3.9 14.9,7.2 24.5,19.8 26.4,34.7 0.5,3.8 1.5,11.2 2.1,16.4 1.7,12.5 5.7,20.7 14.1,28.5 8.1,7.6 12.5,10.3 18.9,12.1 5.7,1.5 15.6,1.8 23.2,0.8 5.2,-0.7 5.4,-2.4 0.4,-2.4 -5,-0.1 -14.4,-2.6 -20.3,-5.5 -9.8,-4.8 -21,-18.4 -23.6,-28.4 -0.5,-2 -1.3,-10 -1.7,-17.8 -0.8,-13.4 -1,-14.5 -4.4,-21.5 -5.1,-10.4 -12.2,-17.1 -22.5,-21.1 -4.8,-1.9 -24.8,-2.5 -23.7,-0.7 z m -398.10003,5.4 c -19.4,4.9 -30.8,24.4 -25.9,44.1 1,3.9 2.6,8.2 3.6,9.7 1.1,1.4 1.9,3.1 1.9,3.7 0,0.7 -4,5.8 -8.9,11.4 -8.6,9.9 -15.2,16.8 -39.1,41.40004 -11.6,11.8 -20,21.7 -20,23.4 0,1.9 3.3,0.8 7.4,-2.6 2.4,-1.9 4.7,-3.5 5.1,-3.5 0.5,0 1.8,-0.9 2.9,-1.9 3,-2.7 15.9,-9.3 24.1,-12.4 3.9,-1.4 16.5,-4.60004 28,-7.10004 29.7,-6.5 44.9,-11.8 51.6,-18.2 1.4,-1.3 2.8,-2.4 3.2,-2.4 2,0 12.9,-13.8 15.9,-20 4.5,-9.5 4.8,-10.8 4.8,-21.2 -0.1,-21 -9,-35.2 -27,-42.8 -6.7,-2.8 -19.8,-3.6 -27.6,-1.6 z m 243.1,0.1 c -4.4,1.4 -11.1,4.9 -13.6,7.1 -0.8,0.8 -2,1.4 -2.6,1.4 -2.6,0 -9.8,11.6 -12.9,20.6 -2.2,6.6 -2.3,23.4 -0.1,29.7 5.7,16.2 17.7,29 34,36.6 5.3,2.4 20.5,6.6 27.7,7.6 2.5,0.3 5.6,1 7,1.5 1.40002,0.4 6.10003,1.6 10.50003,2.5 19.5,4.10004 34.2,10.40004 51.6,21.80004 4.7,3.1 9.1,5.7 9.8,5.7 4.1,0 -2.2,-7.2 -37.6,-43.00004 -22.5,-22.8 -30.30001,-31.3 -30.30001,-33 0,-0.5 0.9,-2.4 1.90001,-4.2 2.6,-4.4 5.1,-14.1 5.1,-19.8 0,-11.4 -7.10001,-24.2 -16.60003,-30.1 -8.7,-5.3 -24.6,-7.4 -33.9,-4.4 z m -162,83.2 c -4,7.8 -6.5,11.3 -13,17.8 -4.4,4.5 -10,9.50004 -12.5,11.20004 -6.6,4.7 -22.5,12.3 -29,13.9 -2.8,0.7 -1,1 9,1.5 6.9,0.3 14.6,1.2 17.2,2 10.2,3.1 17.7,11.4 16.3,17.9 -1.2,5.5 -15.6,19 -20.2,19 -0.9,0 -3,-0.9 -4.8,-2 -6.7,-4.2 -14.3,-6 -24.6,-6 -5.4,0 -10,0.4 -10.3,0.9 -0.3,0.4 -1.9,1.1 -3.5,1.4 -4.3,0.9 -13.3,7 -17.5,11.8 -13.7,16 -14,38.3 -0.9,55.6 4.8,6.3 6.7,8 13.3,11.3 12.1,6.1 28.1,6.5 40.3,1.1 12.4,-5.6 21.7,-18.4 23.8,-32.7 1.3,-8.9 0.5,-15.2 -3.1,-23 l -2.8,-6.3 8.5,-7.8 c 17.2,-15.7 17.3,-15.9 18.3,-61.30004 0.4,-19.5 0.7,-35.6 0.6,-35.7 -0.2,-0.2 -2.4,4.1 -5.1,9.4 z m 98.2,18.5 c 0.4,36.40004 1.3,46.40004 5.2,53.20004 3.6,6.2 6.6,9.5 15.1,16.6 8.1,6.8 8.2,7 6.6,9.5 -3.5,5.6 -4.8,11.1 -4.7,20.7 0.1,8.6 0.4,10.6 3,16.2 1.6,3.6 4.2,8.1 5.8,10.1 3.2,4.2 15.8,13.5 18.3,13.5 0.9,0 2.1,0.5 2.8,1.2 0.8,0.8 5.1,1.2 12.5,1.3 11.5,0 13.3,-0.4 23.5,-5.4 4.6,-2.2 13.8,-12.2 16.60002,-18 3.80001,-8 4.90001,-13.6 4.30001,-21.4 -1.30001,-15.2 -7.40003,-26 -18.90003,-33.7 -14.1,-9.4 -32.1,-9.6 -48.5,-0.5 -3.4,2 -4.8,2.3 -6.9,1.5 -3.9,-1.5 -11,-7.7 -14.9,-13 -6.4,-8.8 -4.2,-15.6 6.8,-20.8 9.7,-4.6 12.5,-5.2 26.3,-5.3 h 12.9 l -6.5,-2.1 c -9,-2.8 -9.7,-3.1 -16.4,-6.2 -8.9,-4.1 -16.3,-9.2 -23.4,-16.00004 -6.3,-6 -15.2,-17.5 -15.2,-19.5 0,-0.6 -0.4,-1.9 -0.9,-2.9 -0.6,-0.9 -1.2,-2.9 -1.6,-4.5 -1.5,-7.2 -2,-0.3 -1.8,25.5 z m 97.3,34.60004 c 0,0.6 0.8,1.3 1.8,1.7 2.7,0.8 11.70003,7.6 17.60003,13.4 14.5,13.9 21.1,23.8 25.9,39.1 1.8,5.5 2.1,9.5 2.3,26.8 0.1,11.2 -0.2,22 -0.6,24 -1.6,7.7 -2.2,15.2 -1.1,15.2 0.6,0 1.1,-0.6 1.1,-1.3 0,-2.9 7.2,-9.5 13.7,-12.8 6.5,-3.2 7.3,-3.4 17.3,-3.4 9.3,0.1 11.1,0.4 15.5,2.7 6.6,3.4 14.9,10.9 17.9,16.2 3.2,5.4 6.6,15.3 6.6,19.1 0,4.4 1.1,7.5 2.5,7.5 4.3,0 2.6,-28.5 -2.7,-45 -7.6,-23.6 -17.7,-39.8 -37.2,-59.5 -21.8,-22.1 -42.9,-34.7 -69.4,-41.5 -4.40001,-1.1 -8.80003,-2.3 -9.60003,-2.6 -0.9,-0.3 -1.6,-0.1 -1.6,0.4 z m -301.1,3.1 c -9.9,2.9 -24.5,9.1 -29.1,12.2 -1.4,1.1 -2.9,1.9 -3.4,1.9 -0.4,0 -2.2,1.1 -4,2.5 -1.8,1.4 -3.6,2.5 -3.9,2.5 -1.7,0 -17.9,13.8 -25.6,21.7 -28.3,29.2 -40,54.7 -42.5,92.1 -0.6,9.6 -0.5,10.4 1.2,10 1.3,-0.2 2.2,-2.3 3.5,-7.6 2.5,-10.4 6.5,-17.8 13.4,-24.8 8.5,-8.6 15.3,-11.4 27.9,-11.4 8.7,0 12.8,1.3 19.6,5.9 4.9,3.4 8.2,7.8 10.7,14.6 1.4,4 1.5,-4.8 0.2,-15 -1.8,-13.2 -1.8,-44.4 -0.1,-51 4.8,-17.6 16.1,-34 32.4,-46.8 2.5,-2 4.9,-3.7 5.2,-3.7 0.4,0 2.5,-1.4 4.8,-3 3.6,-2.7 3.8,-3 1.7,-2.9 -1.3,0 -6.7,1.3 -12,2.8 z m 118.4,6.3 c -1.2,0.6 -3,3 -3.9,5.4 -1.4,3.6 -1.4,4.9 -0.4,7.3 2.5,6.2 9.3,7.9 14.5,3.7 2.6,-2.1 3,-3 3,-7.5 0,-3.8 -0.5,-5.6 -2.1,-7.1 -2.4,-2.5 -8,-3.4 -11.1,-1.8 z m 68.8,0.5 c -2.5,2 -4,7.6 -3.1,11.3 0.6,2.6 6.2,7 8.9,7 2.6,0 7.5,-3.4 9,-6.3 1.8,-3.3 0.8,-7.2 -2.9,-10.8 -3.4,-3.4 -8.6,-3.9 -11.9,-1.2 z"
     id="path3" />
  <path
     id="path4"
     d="m 614.21289,1041.6875 c -1.47187,-0.052 -5.22191,2.7801 -11.67187,8.7051 -9.79996,9.2 -58.30118,58.3992 -61.70118,62.6992 -2.09996,2.7 -2.49843,9.5996 -0.89843,15.5996 5.19996,19.3 5.19961,19.4 4.59961,28.5 -1,15.8 -6.80008,29.4008 -17.5,40.8008 -10.09996,10.7 -28.10044,19.2 -39.4004,18.5 l -5.19921,-0.3008 -0.30079,-19.2988 c -0.19996,-15.4 -0.49964,-19.2012 -1.5996,-19.2012 -1.9,0 -11.6004,6.6008 -14.4004,9.8008 -4.69996,5.5 -5.40039,8.7992 -4.90039,21.6992 0.5,11.2 -0.39925,18.9 -2.69921,25 -0.4,1.1 -1.50079,3.8004 -2.30079,5.9004 -3.79996,10.5 -16.00004,25.3992 -27,33.1992 -16.09992,11.6 -33.29969,16.4004 -58.09961,16.4004 h -15.40039 l 0.59961,3.0996 c 0.3,1.7 0.60157,7.1 0.60157,12 v 8.9004 h 62.29882 c 47.09984,0 62.60004,-0.2992 63.5,-1.1992 0.8,-0.8 1.20118,-5.4996 1.20118,-14.5996 0,-9.4 0.49961,-15.1 1.59961,-19 4.69996,-16.2 14.80004,-27.1012 30,-32.2012 5.49996,-1.8 8.69937,-2 49.19921,-2 h 43.20118 v 4.9004 c 0,2.7 -0.40039,6.1004 -0.90039,7.4004 -0.9,2.3 -1.40083,2.5004 -10.80079,2.9004 -8.89996,0.3 -10.19886,0.5988 -14.29882,3.2988 -9.29996,6.3 -13.1,17.5996 -9.5,28.5996 2.19996,6.6 6.89961,13.3 11.09961,16 4.09996,2.5 11.99886,4.9004 16.29882,4.9004 6.1,0 16.10118,-4.1996 20.70118,-8.5996 4.99996,-4.9 7,-8.5008 9.5,-17.3008 1.69996,-5.8 1.90039,-10.2988 1.90039,-38.2988 0,-24.7 -0.30118,-31.8004 -1.20118,-31.9004 -0.69996,0 -14.19965,-4e-4 -30.09961,0.1 l -28.69921,0.1 v -41.8984 c 0.1,-23 0.5,-43.4008 1,-45.3008 0.5,-1.9 1.39961,-6.1004 2.09961,-9.4004 3.99996,-19.2 15.49929,-43.0988 31.69921,-65.2988 4.5,-6.2 8.20118,-11.7012 8.20118,-12.2012 0,-0.65 -0.23789,-0.9867 -0.72852,-1.0039 z m 481.15431,1.2012 c -0.3078,0.1218 -0.4258,0.5035 -0.4258,1.1035 0,0.7 3.0984,5.4992 6.8984,10.6992 14.8,20.3 24.6012,38.8 29.2012,55.5 1.2,4.4 2.5,8.9 3,10 0.4,1.1 0.9988,3.8 1.2988,6 0.3,2.2 1,6.3012 1.5,9.2012 0.5,2.9 1.0016,22.2996 1.1016,43.0996 l 0.1,38 -30,-0.5 -29.9004,-0.4004 -0.6992,7.3008 c -0.4,4 -0.5008,19.8988 -0.3008,35.2988 l 0.3008,28 2.8984,5.5 c 5.8,11.2 11.7012,16.6 21.2012,19.5 5.9,1.8 9.4004,1.8012 15.4004,0.2012 12.8,-3.6 19.8988,-12.4016 20.7988,-26.1016 1,-15.7 -8.4992,-25 -26.6992,-26 -4.6,-0.3 -8.5008,-0.6984 -8.8008,-0.8984 -0.2,-0.3 -0.4992,-3.2016 -0.6992,-6.6016 -0.2,-4.2 0.1996,-6.4988 1.0996,-7.2988 2,-1.6 83.5004,-0.2008 89.4004,1.6992 16.1,4.8 25.2992,14 31.1992,31 1.7,4.9 2.0996,8.4996 2.0996,19.5996 0.1,10 0.5,14.0008 1.5,15.3008 1.2,1.5 6.6004,1.6004 63.5,1.4004 l 62.1016,-0.3008 0.2988,-11.7988 0.3008,-11.7012 h -14.4004 c -23.8,0 -44.0004,-5.5004 -58.9004,-15.9004 -10.3,-7.1 -21.1988,-19.8996 -26.2988,-30.5996 -7,-14.9 -6.7016,-13.5996 -6.6016,-32.0996 l 0.1016,-17.0996 -3,-4.0996 c -3,-4.1 -13.9016,-12.2012 -16.6016,-12.2012 -1.2,0 -1.3984,3.3 -1.3984,19.5 v 19.5 h -3.3008 c -5.6,0 -18.6992,-3.7996 -26.6992,-7.5996 -9.5,-4.7 -20.1012,-15.1 -24.7012,-24.5 -7.8,-15.8 -9.5004,-37.2004 -3.9004,-49.4004 1.7,-3.6 3.6016,-11.5988 3.6016,-14.7988 0,-1.3 -1.4,-4.3008 -3,-6.8008 -3.7,-5.5 -51.5008,-53.9992 -62.8008,-63.6992 -6.225,-5.4 -8.85,-7.3696 -9.7734,-7.0039 z M 897.90234,1212.791 c -2.28746,-0.025 -4.56211,0.6004 -6.66211,1.9004 -4.49996,2.7 -6.5996,6.4004 -6.59961,11.4004 0,10.6 9.40004,16.5004 19,11.9004 9.3,-4.4 9.8,-17.7012 1,-23.2012 -2.14996,-1.3 -4.45078,-1.975 -6.73828,-2 z m -86.16211,0.5 c -0.69996,-0.2 -2.59925,4e-4 -4.19921,0.4004 -5.3,1.6 -9.59961,7.3008 -9.59961,12.8008 0,3.7 5.19886,10.8988 8.79882,12.2988 9.79996,3.8 20.9,-7.4988 16.5,-16.7988 -1.69996,-3.6 -6.69886,-8.3008 -8.79882,-8.3008 -0.7,0 -1.90118,-0.2004 -2.70118,-0.4004 z m 43.96485,222.1231 c -2.1668,-0.099 -4.42621,-0.01 -6.76367,0.2773 -11.89996,1.5 -20.60118,11 -22.70118,24.5 -1.29996,8.5 1.09965,16.2996 7.09961,23.0996 3.7,4.2 5.60157,5.5012 11.10157,7.2012 8.09996,2.7 12.49925,2.7988 19.19921,0.2988 13.19996,-4.8 20.1,-15.4984 19,-29.3984 -1.13746,-15.4 -11.76804,-25.2881 -26.93554,-25.9785 z" />
</svg>
